<mxfile host="app.diagrams.net" agent="Mozilla/5.0 (Windows NT 10.0; Win64; x64) AppleWebKit/537.36 (KHTML, like Gecko) Chrome/126.0.0.0 Safari/537.36" version="24.7.5">
  <diagram name="Página-1" id="LmfKrhNNgj2Vj9cpq0xI">
    <mxGraphModel dx="1625" dy="825" grid="0" gridSize="10" guides="1" tooltips="1" connect="1" arrows="1" fold="1" page="0" pageScale="1" pageWidth="827" pageHeight="1169" math="0" shadow="0">
      <root>
        <mxCell id="0" />
        <mxCell id="1" parent="0" />
        <mxCell id="JIX2UN_feHQywV8XDExl-13" style="edgeStyle=none;curved=1;rounded=0;orthogonalLoop=1;jettySize=auto;html=1;exitX=1;exitY=0.5;exitDx=0;exitDy=0;entryX=0;entryY=0.5;entryDx=0;entryDy=0;fontSize=12;startSize=8;endSize=8;" edge="1" parent="1" source="JIX2UN_feHQywV8XDExl-1" target="JIX2UN_feHQywV8XDExl-11">
          <mxGeometry relative="1" as="geometry" />
        </mxCell>
        <mxCell id="JIX2UN_feHQywV8XDExl-17" style="edgeStyle=none;curved=1;rounded=0;orthogonalLoop=1;jettySize=auto;html=1;exitX=0.5;exitY=0;exitDx=0;exitDy=0;entryX=0.5;entryY=1;entryDx=0;entryDy=0;fontSize=12;startSize=8;endSize=8;" edge="1" parent="1" source="JIX2UN_feHQywV8XDExl-1" target="JIX2UN_feHQywV8XDExl-12">
          <mxGeometry relative="1" as="geometry" />
        </mxCell>
        <mxCell id="JIX2UN_feHQywV8XDExl-1" value="Paciente" style="rounded=0;whiteSpace=wrap;html=1;" vertex="1" parent="1">
          <mxGeometry x="-208" y="37" width="160" height="80" as="geometry" />
        </mxCell>
        <mxCell id="JIX2UN_feHQywV8XDExl-37" style="edgeStyle=none;curved=1;rounded=0;orthogonalLoop=1;jettySize=auto;html=1;exitX=1;exitY=0.5;exitDx=0;exitDy=0;entryX=0.5;entryY=0;entryDx=0;entryDy=0;fontSize=12;startSize=8;endSize=8;" edge="1" parent="1" source="JIX2UN_feHQywV8XDExl-2" target="JIX2UN_feHQywV8XDExl-34">
          <mxGeometry relative="1" as="geometry" />
        </mxCell>
        <mxCell id="JIX2UN_feHQywV8XDExl-2" value="Veterinário" style="rounded=0;whiteSpace=wrap;html=1;" vertex="1" parent="1">
          <mxGeometry x="-208" y="-240" width="160" height="80" as="geometry" />
        </mxCell>
        <mxCell id="JIX2UN_feHQywV8XDExl-3" value="Proprietário" style="rounded=0;whiteSpace=wrap;html=1;" vertex="1" parent="1">
          <mxGeometry x="134" y="37" width="160" height="80" as="geometry" />
        </mxCell>
        <mxCell id="JIX2UN_feHQywV8XDExl-4" value="Tratamento" style="rounded=0;whiteSpace=wrap;html=1;" vertex="1" parent="1">
          <mxGeometry x="206" y="-117" width="160" height="80" as="geometry" />
        </mxCell>
        <mxCell id="JIX2UN_feHQywV8XDExl-32" style="edgeStyle=none;curved=1;rounded=0;orthogonalLoop=1;jettySize=auto;html=1;exitX=1;exitY=0.5;exitDx=0;exitDy=0;entryX=0;entryY=0.5;entryDx=0;entryDy=0;fontSize=12;startSize=8;endSize=8;" edge="1" parent="1" source="JIX2UN_feHQywV8XDExl-7" target="JIX2UN_feHQywV8XDExl-31">
          <mxGeometry relative="1" as="geometry" />
        </mxCell>
        <mxCell id="JIX2UN_feHQywV8XDExl-7" value="Medicamento" style="whiteSpace=wrap;html=1;" vertex="1" parent="1">
          <mxGeometry x="-516" y="47" width="120" height="60" as="geometry" />
        </mxCell>
        <mxCell id="JIX2UN_feHQywV8XDExl-14" style="edgeStyle=none;curved=1;rounded=0;orthogonalLoop=1;jettySize=auto;html=1;exitX=1;exitY=0.5;exitDx=0;exitDy=0;entryX=0;entryY=0.5;entryDx=0;entryDy=0;fontSize=12;startSize=8;endSize=8;" edge="1" parent="1" source="JIX2UN_feHQywV8XDExl-11" target="JIX2UN_feHQywV8XDExl-3">
          <mxGeometry relative="1" as="geometry" />
        </mxCell>
        <mxCell id="JIX2UN_feHQywV8XDExl-11" value="é dono" style="rhombus;whiteSpace=wrap;html=1;" vertex="1" parent="1">
          <mxGeometry x="3" y="37" width="80" height="80" as="geometry" />
        </mxCell>
        <mxCell id="JIX2UN_feHQywV8XDExl-18" style="edgeStyle=none;curved=1;rounded=0;orthogonalLoop=1;jettySize=auto;html=1;exitX=0.5;exitY=0;exitDx=0;exitDy=0;entryX=0.5;entryY=1;entryDx=0;entryDy=0;fontSize=12;startSize=8;endSize=8;" edge="1" parent="1" source="JIX2UN_feHQywV8XDExl-12" target="JIX2UN_feHQywV8XDExl-2">
          <mxGeometry relative="1" as="geometry" />
        </mxCell>
        <mxCell id="JIX2UN_feHQywV8XDExl-12" value="Consulta" style="rhombus;whiteSpace=wrap;html=1;" vertex="1" parent="1">
          <mxGeometry x="-167" y="-108" width="78" height="80" as="geometry" />
        </mxCell>
        <mxCell id="JIX2UN_feHQywV8XDExl-15" value="1" style="text;html=1;align=center;verticalAlign=middle;resizable=0;points=[];autosize=1;strokeColor=none;fillColor=none;fontSize=16;" vertex="1" parent="1">
          <mxGeometry x="98" y="37" width="27" height="31" as="geometry" />
        </mxCell>
        <mxCell id="JIX2UN_feHQywV8XDExl-16" value="N" style="text;html=1;align=center;verticalAlign=middle;resizable=0;points=[];autosize=1;strokeColor=none;fillColor=none;fontSize=16;" vertex="1" parent="1">
          <mxGeometry x="-42" y="37" width="30" height="31" as="geometry" />
        </mxCell>
        <mxCell id="JIX2UN_feHQywV8XDExl-19" value="N" style="text;html=1;align=center;verticalAlign=middle;resizable=0;points=[];autosize=1;strokeColor=none;fillColor=none;fontSize=16;" vertex="1" parent="1">
          <mxGeometry x="-172" y="-156" width="30" height="31" as="geometry" />
        </mxCell>
        <mxCell id="JIX2UN_feHQywV8XDExl-20" value="N" style="text;html=1;align=center;verticalAlign=middle;resizable=0;points=[];autosize=1;strokeColor=none;fillColor=none;fontSize=16;" vertex="1" parent="1">
          <mxGeometry x="-167" y="2" width="30" height="31" as="geometry" />
        </mxCell>
        <mxCell id="JIX2UN_feHQywV8XDExl-33" style="edgeStyle=none;curved=1;rounded=0;orthogonalLoop=1;jettySize=auto;html=1;exitX=1;exitY=0.5;exitDx=0;exitDy=0;fontSize=12;startSize=8;endSize=8;" edge="1" parent="1" source="JIX2UN_feHQywV8XDExl-31" target="JIX2UN_feHQywV8XDExl-1">
          <mxGeometry relative="1" as="geometry" />
        </mxCell>
        <mxCell id="JIX2UN_feHQywV8XDExl-31" value="Receitado" style="rhombus;whiteSpace=wrap;html=1;" vertex="1" parent="1">
          <mxGeometry x="-342" y="35" width="80" height="80" as="geometry" />
        </mxCell>
        <mxCell id="JIX2UN_feHQywV8XDExl-35" style="edgeStyle=none;curved=1;rounded=0;orthogonalLoop=1;jettySize=auto;html=1;exitX=1;exitY=0.5;exitDx=0;exitDy=0;fontSize=12;startSize=8;endSize=8;" edge="1" parent="1" source="JIX2UN_feHQywV8XDExl-34" target="JIX2UN_feHQywV8XDExl-4">
          <mxGeometry relative="1" as="geometry" />
        </mxCell>
        <mxCell id="JIX2UN_feHQywV8XDExl-36" style="edgeStyle=none;curved=1;rounded=0;orthogonalLoop=1;jettySize=auto;html=1;exitX=0.5;exitY=1;exitDx=0;exitDy=0;entryX=0.75;entryY=0;entryDx=0;entryDy=0;fontSize=12;startSize=8;endSize=8;" edge="1" parent="1" source="JIX2UN_feHQywV8XDExl-34" target="JIX2UN_feHQywV8XDExl-1">
          <mxGeometry relative="1" as="geometry" />
        </mxCell>
        <mxCell id="JIX2UN_feHQywV8XDExl-34" value="Prescrito" style="rhombus;whiteSpace=wrap;html=1;" vertex="1" parent="1">
          <mxGeometry x="-19" y="-117" width="80" height="80" as="geometry" />
        </mxCell>
        <mxCell id="JIX2UN_feHQywV8XDExl-38" value="N" style="text;html=1;align=center;verticalAlign=middle;resizable=0;points=[];autosize=1;strokeColor=none;fillColor=none;fontSize=16;" vertex="1" parent="1">
          <mxGeometry x="169" y="-121" width="30" height="31" as="geometry" />
        </mxCell>
        <mxCell id="JIX2UN_feHQywV8XDExl-39" value="1" style="text;html=1;align=center;verticalAlign=middle;resizable=0;points=[];autosize=1;strokeColor=none;fillColor=none;fontSize=16;" vertex="1" parent="1">
          <mxGeometry x="-105.5" y="-1.5" width="27" height="31" as="geometry" />
        </mxCell>
        <mxCell id="JIX2UN_feHQywV8XDExl-40" value="N" style="text;html=1;align=center;verticalAlign=middle;resizable=0;points=[];autosize=1;strokeColor=none;fillColor=none;fontSize=16;" vertex="1" parent="1">
          <mxGeometry x="-48" y="-231" width="30" height="31" as="geometry" />
        </mxCell>
        <mxCell id="JIX2UN_feHQywV8XDExl-41" value="Paciente" style="shape=table;startSize=30;container=1;collapsible=0;childLayout=tableLayout;" vertex="1" parent="1">
          <mxGeometry x="-208" y="168" width="160" height="270" as="geometry" />
        </mxCell>
        <mxCell id="JIX2UN_feHQywV8XDExl-42" value="" style="shape=tableRow;horizontal=0;startSize=0;swimlaneHead=0;swimlaneBody=0;strokeColor=inherit;top=0;left=0;bottom=0;right=0;collapsible=0;dropTarget=0;fillColor=none;points=[[0,0.5],[1,0.5]];portConstraint=eastwest;" vertex="1" parent="JIX2UN_feHQywV8XDExl-41">
          <mxGeometry y="30" width="160" height="40" as="geometry" />
        </mxCell>
        <mxCell id="JIX2UN_feHQywV8XDExl-43" value="Cód Paciente (PK)" style="shape=partialRectangle;html=1;whiteSpace=wrap;connectable=0;strokeColor=inherit;overflow=hidden;fillColor=none;top=0;left=0;bottom=0;right=0;pointerEvents=1;" vertex="1" parent="JIX2UN_feHQywV8XDExl-42">
          <mxGeometry width="160" height="40" as="geometry">
            <mxRectangle width="160" height="40" as="alternateBounds" />
          </mxGeometry>
        </mxCell>
        <mxCell id="JIX2UN_feHQywV8XDExl-44" value="" style="shape=tableRow;horizontal=0;startSize=0;swimlaneHead=0;swimlaneBody=0;strokeColor=inherit;top=0;left=0;bottom=0;right=0;collapsible=0;dropTarget=0;fillColor=none;points=[[0,0.5],[1,0.5]];portConstraint=eastwest;" vertex="1" parent="JIX2UN_feHQywV8XDExl-41">
          <mxGeometry y="70" width="160" height="40" as="geometry" />
        </mxCell>
        <mxCell id="JIX2UN_feHQywV8XDExl-45" value="Nome" style="shape=partialRectangle;html=1;whiteSpace=wrap;connectable=0;strokeColor=inherit;overflow=hidden;fillColor=none;top=0;left=0;bottom=0;right=0;pointerEvents=1;" vertex="1" parent="JIX2UN_feHQywV8XDExl-44">
          <mxGeometry width="160" height="40" as="geometry">
            <mxRectangle width="160" height="40" as="alternateBounds" />
          </mxGeometry>
        </mxCell>
        <mxCell id="JIX2UN_feHQywV8XDExl-46" value="" style="shape=tableRow;horizontal=0;startSize=0;swimlaneHead=0;swimlaneBody=0;strokeColor=inherit;top=0;left=0;bottom=0;right=0;collapsible=0;dropTarget=0;fillColor=none;points=[[0,0.5],[1,0.5]];portConstraint=eastwest;" vertex="1" parent="JIX2UN_feHQywV8XDExl-41">
          <mxGeometry y="110" width="160" height="40" as="geometry" />
        </mxCell>
        <mxCell id="JIX2UN_feHQywV8XDExl-47" value="Espécie" style="shape=partialRectangle;html=1;whiteSpace=wrap;connectable=0;strokeColor=inherit;overflow=hidden;fillColor=none;top=0;left=0;bottom=0;right=0;pointerEvents=1;" vertex="1" parent="JIX2UN_feHQywV8XDExl-46">
          <mxGeometry width="160" height="40" as="geometry">
            <mxRectangle width="160" height="40" as="alternateBounds" />
          </mxGeometry>
        </mxCell>
        <mxCell id="JIX2UN_feHQywV8XDExl-48" value="" style="shape=tableRow;horizontal=0;startSize=0;swimlaneHead=0;swimlaneBody=0;strokeColor=inherit;top=0;left=0;bottom=0;right=0;collapsible=0;dropTarget=0;fillColor=none;points=[[0,0.5],[1,0.5]];portConstraint=eastwest;" vertex="1" parent="JIX2UN_feHQywV8XDExl-41">
          <mxGeometry y="150" width="160" height="40" as="geometry" />
        </mxCell>
        <mxCell id="JIX2UN_feHQywV8XDExl-49" value="Raça" style="shape=partialRectangle;html=1;whiteSpace=wrap;connectable=0;strokeColor=inherit;overflow=hidden;fillColor=none;top=0;left=0;bottom=0;right=0;pointerEvents=1;" vertex="1" parent="JIX2UN_feHQywV8XDExl-48">
          <mxGeometry width="160" height="40" as="geometry">
            <mxRectangle width="160" height="40" as="alternateBounds" />
          </mxGeometry>
        </mxCell>
        <mxCell id="JIX2UN_feHQywV8XDExl-50" value="" style="shape=tableRow;horizontal=0;startSize=0;swimlaneHead=0;swimlaneBody=0;strokeColor=inherit;top=0;left=0;bottom=0;right=0;collapsible=0;dropTarget=0;fillColor=none;points=[[0,0.5],[1,0.5]];portConstraint=eastwest;" vertex="1" parent="JIX2UN_feHQywV8XDExl-41">
          <mxGeometry y="190" width="160" height="40" as="geometry" />
        </mxCell>
        <mxCell id="JIX2UN_feHQywV8XDExl-51" value="Data de Nascimento" style="shape=partialRectangle;html=1;whiteSpace=wrap;connectable=0;strokeColor=inherit;overflow=hidden;fillColor=none;top=0;left=0;bottom=0;right=0;pointerEvents=1;" vertex="1" parent="JIX2UN_feHQywV8XDExl-50">
          <mxGeometry width="160" height="40" as="geometry">
            <mxRectangle width="160" height="40" as="alternateBounds" />
          </mxGeometry>
        </mxCell>
        <mxCell id="JIX2UN_feHQywV8XDExl-52" value="" style="shape=tableRow;horizontal=0;startSize=0;swimlaneHead=0;swimlaneBody=0;strokeColor=inherit;top=0;left=0;bottom=0;right=0;collapsible=0;dropTarget=0;fillColor=none;points=[[0,0.5],[1,0.5]];portConstraint=eastwest;" vertex="1" parent="JIX2UN_feHQywV8XDExl-41">
          <mxGeometry y="230" width="160" height="40" as="geometry" />
        </mxCell>
        <mxCell id="JIX2UN_feHQywV8XDExl-53" value="Peso" style="shape=partialRectangle;html=1;whiteSpace=wrap;connectable=0;strokeColor=inherit;overflow=hidden;fillColor=none;top=0;left=0;bottom=0;right=0;pointerEvents=1;" vertex="1" parent="JIX2UN_feHQywV8XDExl-52">
          <mxGeometry width="160" height="40" as="geometry">
            <mxRectangle width="160" height="40" as="alternateBounds" />
          </mxGeometry>
        </mxCell>
        <mxCell id="JIX2UN_feHQywV8XDExl-54" value="paciente" style="shape=table;startSize=30;container=1;collapsible=0;childLayout=tableLayout;" vertex="1" parent="1">
          <mxGeometry x="-314" y="489" width="378" height="270" as="geometry" />
        </mxCell>
        <mxCell id="JIX2UN_feHQywV8XDExl-55" value="" style="shape=tableRow;horizontal=0;startSize=0;swimlaneHead=0;swimlaneBody=0;strokeColor=inherit;top=0;left=0;bottom=0;right=0;collapsible=0;dropTarget=0;fillColor=none;points=[[0,0.5],[1,0.5]];portConstraint=eastwest;" vertex="1" parent="JIX2UN_feHQywV8XDExl-54">
          <mxGeometry y="30" width="378" height="40" as="geometry" />
        </mxCell>
        <mxCell id="JIX2UN_feHQywV8XDExl-56" value="idpaciente: INT NOT NULL AUTO_INCREMENT PRIMARY KEY" style="shape=partialRectangle;html=1;whiteSpace=wrap;connectable=0;strokeColor=inherit;overflow=hidden;fillColor=none;top=0;left=0;bottom=0;right=0;pointerEvents=1;" vertex="1" parent="JIX2UN_feHQywV8XDExl-55">
          <mxGeometry width="378" height="40" as="geometry">
            <mxRectangle width="378" height="40" as="alternateBounds" />
          </mxGeometry>
        </mxCell>
        <mxCell id="JIX2UN_feHQywV8XDExl-57" value="" style="shape=tableRow;horizontal=0;startSize=0;swimlaneHead=0;swimlaneBody=0;strokeColor=inherit;top=0;left=0;bottom=0;right=0;collapsible=0;dropTarget=0;fillColor=none;points=[[0,0.5],[1,0.5]];portConstraint=eastwest;" vertex="1" parent="JIX2UN_feHQywV8XDExl-54">
          <mxGeometry y="70" width="378" height="40" as="geometry" />
        </mxCell>
        <mxCell id="JIX2UN_feHQywV8XDExl-58" value="nomepaciente: VARCHAR(255) NOT NULL" style="shape=partialRectangle;html=1;whiteSpace=wrap;connectable=0;strokeColor=inherit;overflow=hidden;fillColor=none;top=0;left=0;bottom=0;right=0;pointerEvents=1;" vertex="1" parent="JIX2UN_feHQywV8XDExl-57">
          <mxGeometry width="378" height="40" as="geometry">
            <mxRectangle width="378" height="40" as="alternateBounds" />
          </mxGeometry>
        </mxCell>
        <mxCell id="JIX2UN_feHQywV8XDExl-59" value="" style="shape=tableRow;horizontal=0;startSize=0;swimlaneHead=0;swimlaneBody=0;strokeColor=inherit;top=0;left=0;bottom=0;right=0;collapsible=0;dropTarget=0;fillColor=none;points=[[0,0.5],[1,0.5]];portConstraint=eastwest;" vertex="1" parent="JIX2UN_feHQywV8XDExl-54">
          <mxGeometry y="110" width="378" height="40" as="geometry" />
        </mxCell>
        <mxCell id="JIX2UN_feHQywV8XDExl-60" value="especiepaciente: VARCHAR(255) DEFAULT &#39;Espécie não identificada&#39;" style="shape=partialRectangle;html=1;whiteSpace=wrap;connectable=0;strokeColor=inherit;overflow=hidden;fillColor=none;top=0;left=0;bottom=0;right=0;pointerEvents=1;" vertex="1" parent="JIX2UN_feHQywV8XDExl-59">
          <mxGeometry width="378" height="40" as="geometry">
            <mxRectangle width="378" height="40" as="alternateBounds" />
          </mxGeometry>
        </mxCell>
        <mxCell id="JIX2UN_feHQywV8XDExl-61" value="" style="shape=tableRow;horizontal=0;startSize=0;swimlaneHead=0;swimlaneBody=0;strokeColor=inherit;top=0;left=0;bottom=0;right=0;collapsible=0;dropTarget=0;fillColor=none;points=[[0,0.5],[1,0.5]];portConstraint=eastwest;" vertex="1" parent="JIX2UN_feHQywV8XDExl-54">
          <mxGeometry y="150" width="378" height="40" as="geometry" />
        </mxCell>
        <mxCell id="JIX2UN_feHQywV8XDExl-62" value="racapaciente: VARCHAR(255) DEFAULT &#39;Raça não identificada&#39;" style="shape=partialRectangle;html=1;whiteSpace=wrap;connectable=0;strokeColor=inherit;overflow=hidden;fillColor=none;top=0;left=0;bottom=0;right=0;pointerEvents=1;" vertex="1" parent="JIX2UN_feHQywV8XDExl-61">
          <mxGeometry width="378" height="40" as="geometry">
            <mxRectangle width="378" height="40" as="alternateBounds" />
          </mxGeometry>
        </mxCell>
        <mxCell id="JIX2UN_feHQywV8XDExl-63" value="" style="shape=tableRow;horizontal=0;startSize=0;swimlaneHead=0;swimlaneBody=0;strokeColor=inherit;top=0;left=0;bottom=0;right=0;collapsible=0;dropTarget=0;fillColor=none;points=[[0,0.5],[1,0.5]];portConstraint=eastwest;" vertex="1" parent="JIX2UN_feHQywV8XDExl-54">
          <mxGeometry y="190" width="378" height="40" as="geometry" />
        </mxCell>
        <mxCell id="JIX2UN_feHQywV8XDExl-64" value="nascimentopaciente: DATE" style="shape=partialRectangle;html=1;whiteSpace=wrap;connectable=0;strokeColor=inherit;overflow=hidden;fillColor=none;top=0;left=0;bottom=0;right=0;pointerEvents=1;" vertex="1" parent="JIX2UN_feHQywV8XDExl-63">
          <mxGeometry width="378" height="40" as="geometry">
            <mxRectangle width="378" height="40" as="alternateBounds" />
          </mxGeometry>
        </mxCell>
        <mxCell id="JIX2UN_feHQywV8XDExl-65" value="" style="shape=tableRow;horizontal=0;startSize=0;swimlaneHead=0;swimlaneBody=0;strokeColor=inherit;top=0;left=0;bottom=0;right=0;collapsible=0;dropTarget=0;fillColor=none;points=[[0,0.5],[1,0.5]];portConstraint=eastwest;" vertex="1" parent="JIX2UN_feHQywV8XDExl-54">
          <mxGeometry y="230" width="378" height="40" as="geometry" />
        </mxCell>
        <mxCell id="JIX2UN_feHQywV8XDExl-66" value="pesopaciente: DECIMAL(5,2) NOT NULL DEFAULT 0.00" style="shape=partialRectangle;html=1;whiteSpace=wrap;connectable=0;strokeColor=inherit;overflow=hidden;fillColor=none;top=0;left=0;bottom=0;right=0;pointerEvents=1;" vertex="1" parent="JIX2UN_feHQywV8XDExl-65">
          <mxGeometry width="378" height="40" as="geometry">
            <mxRectangle width="378" height="40" as="alternateBounds" />
          </mxGeometry>
        </mxCell>
      </root>
    </mxGraphModel>
  </diagram>
</mxfile>
